<mxfile host="Electron" modified="2025-03-29T21:38:40.303Z" agent="Mozilla/5.0 (X11; Linux x86_64) AppleWebKit/537.36 (KHTML, like Gecko) draw.io/24.6.4 Chrome/124.0.6367.207 Electron/30.0.6 Safari/537.36" etag="GJaQqO2E6R596k3O_LQ9" version="24.6.4" type="device">
  <diagram name="Страница — 1" id="pJ7O_9uAibKOxEy6V4K_">
    <mxGraphModel dx="1091" dy="674" grid="1" gridSize="10" guides="1" tooltips="1" connect="1" arrows="1" fold="1" page="1" pageScale="1" pageWidth="1027" pageHeight="1169" math="0" shadow="0">
      <root>
        <mxCell id="0" />
        <mxCell id="1" parent="0" />
        <mxCell id="Es5Wt9Gnt3ImgfAcn_2i-16" value="Загрузка содержимого удаленного репозитория" style="swimlane;html=1;childLayout=stackLayout;resizeParent=1;resizeParentMax=0;horizontal=0;startSize=20;horizontalStack=0;whiteSpace=wrap;" vertex="1" parent="1">
          <mxGeometry x="170" y="80" width="1400" height="320" as="geometry" />
        </mxCell>
        <mxCell id="Es5Wt9Gnt3ImgfAcn_2i-17" value="Lane 1" style="swimlane;html=1;startSize=20;horizontal=0;" vertex="1" parent="Es5Wt9Gnt3ImgfAcn_2i-16">
          <mxGeometry x="20" width="1380" height="320" as="geometry" />
        </mxCell>
        <mxCell id="Es5Wt9Gnt3ImgfAcn_2i-22" value="" style="points=[[0.25,0.25,0],[0.5,0,0],[0.75,0.25,0],[1,0.5,0],[0.75,0.75,0],[0.5,1,0],[0.25,0.75,0],[0,0.5,0]];shape=mxgraph.bpmn.gateway2;html=1;verticalLabelPosition=bottom;labelBackgroundColor=#ffffff;verticalAlign=top;align=center;perimeter=rhombusPerimeter;outlineConnect=0;outline=none;symbol=none;gwType=exclusive;" vertex="1" parent="Es5Wt9Gnt3ImgfAcn_2i-17">
          <mxGeometry x="360" y="190" width="50" height="50" as="geometry" />
        </mxCell>
        <mxCell id="Es5Wt9Gnt3ImgfAcn_2i-23" value="" style="points=[[0.145,0.145,0],[0.5,0,0],[0.855,0.145,0],[1,0.5,0],[0.855,0.855,0],[0.5,1,0],[0.145,0.855,0],[0,0.5,0]];shape=mxgraph.bpmn.event;html=1;verticalLabelPosition=bottom;labelBackgroundColor=#ffffff;verticalAlign=top;align=center;perimeter=ellipsePerimeter;outlineConnect=0;aspect=fixed;outline=end;symbol=cancel;" vertex="1" parent="Es5Wt9Gnt3ImgfAcn_2i-17">
          <mxGeometry x="450" y="230" width="50" height="50" as="geometry" />
        </mxCell>
        <mxCell id="Es5Wt9Gnt3ImgfAcn_2i-24" style="edgeStyle=orthogonalEdgeStyle;rounded=0;orthogonalLoop=1;jettySize=auto;html=1;entryX=0;entryY=0.5;entryDx=0;entryDy=0;entryPerimeter=0;" edge="1" parent="Es5Wt9Gnt3ImgfAcn_2i-17" source="Es5Wt9Gnt3ImgfAcn_2i-22" target="Es5Wt9Gnt3ImgfAcn_2i-23">
          <mxGeometry relative="1" as="geometry">
            <Array as="points">
              <mxPoint x="385" y="255" />
            </Array>
          </mxGeometry>
        </mxCell>
        <mxCell id="Es5Wt9Gnt3ImgfAcn_2i-25" value="Отказано" style="text;html=1;align=center;verticalAlign=middle;resizable=0;points=[];autosize=1;strokeColor=none;fillColor=none;" vertex="1" parent="Es5Wt9Gnt3ImgfAcn_2i-17">
          <mxGeometry x="370" y="255" width="80" height="30" as="geometry" />
        </mxCell>
        <mxCell id="Es5Wt9Gnt3ImgfAcn_2i-40" style="edgeStyle=orthogonalEdgeStyle;rounded=0;orthogonalLoop=1;jettySize=auto;html=1;entryX=0;entryY=0.5;entryDx=0;entryDy=0;entryPerimeter=0;" edge="1" parent="Es5Wt9Gnt3ImgfAcn_2i-17" source="Es5Wt9Gnt3ImgfAcn_2i-27" target="Es5Wt9Gnt3ImgfAcn_2i-46">
          <mxGeometry relative="1" as="geometry">
            <mxPoint x="650" y="120" as="targetPoint" />
            <Array as="points">
              <mxPoint x="525" y="125" />
            </Array>
          </mxGeometry>
        </mxCell>
        <mxCell id="Es5Wt9Gnt3ImgfAcn_2i-27" value="" style="points=[[0.25,0.25,0],[0.5,0,0],[0.75,0.25,0],[1,0.5,0],[0.75,0.75,0],[0.5,1,0],[0.25,0.75,0],[0,0.5,0]];shape=mxgraph.bpmn.gateway2;html=1;verticalLabelPosition=bottom;labelBackgroundColor=#ffffff;verticalAlign=top;align=center;perimeter=rhombusPerimeter;outlineConnect=0;outline=none;symbol=none;gwType=exclusive;" vertex="1" parent="Es5Wt9Gnt3ImgfAcn_2i-17">
          <mxGeometry x="500" y="155" width="50" height="50" as="geometry" />
        </mxCell>
        <mxCell id="Es5Wt9Gnt3ImgfAcn_2i-31" style="edgeStyle=orthogonalEdgeStyle;rounded=0;orthogonalLoop=1;jettySize=auto;html=1;" edge="1" parent="Es5Wt9Gnt3ImgfAcn_2i-17" source="Es5Wt9Gnt3ImgfAcn_2i-27">
          <mxGeometry relative="1" as="geometry">
            <mxPoint x="640" y="215" as="targetPoint" />
            <Array as="points">
              <mxPoint x="525" y="215" />
            </Array>
          </mxGeometry>
        </mxCell>
        <mxCell id="Es5Wt9Gnt3ImgfAcn_2i-33" value="&lt;span style=&quot;text-wrap: nowrap;&quot;&gt;Запрос серверу&lt;/span&gt;&lt;br style=&quot;text-wrap: nowrap;&quot;&gt;&lt;span style=&quot;text-wrap: nowrap;&quot;&gt;на синхронизацию&lt;/span&gt;" style="points=[[0.25,0,0],[0.5,0,0],[0.75,0,0],[1,0.25,0],[1,0.5,0],[1,0.75,0],[0.75,1,0],[0.5,1,0],[0.25,1,0],[0,0.75,0],[0,0.5,0],[0,0.25,0]];shape=mxgraph.bpmn.task;whiteSpace=wrap;rectStyle=rounded;size=10;html=1;container=1;expand=0;collapsible=0;taskMarker=abstract;" vertex="1" parent="Es5Wt9Gnt3ImgfAcn_2i-17">
          <mxGeometry x="40" y="175" width="120" height="80" as="geometry" />
        </mxCell>
        <mxCell id="Es5Wt9Gnt3ImgfAcn_2i-34" value="&lt;span style=&quot;text-wrap: nowrap;&quot;&gt;Проверка прав&amp;nbsp;&lt;/span&gt;&lt;div&gt;&lt;span style=&quot;text-wrap: nowrap;&quot;&gt;доступа&lt;/span&gt;&lt;/div&gt;" style="points=[[0.25,0,0],[0.5,0,0],[0.75,0,0],[1,0.25,0],[1,0.5,0],[1,0.75,0],[0.75,1,0],[0.5,1,0],[0.25,1,0],[0,0.75,0],[0,0.5,0],[0,0.25,0]];shape=mxgraph.bpmn.task;whiteSpace=wrap;rectStyle=rounded;size=10;html=1;container=1;expand=0;collapsible=0;taskMarker=abstract;" vertex="1" parent="Es5Wt9Gnt3ImgfAcn_2i-17">
          <mxGeometry x="180" y="175" width="120" height="80" as="geometry" />
        </mxCell>
        <mxCell id="Es5Wt9Gnt3ImgfAcn_2i-35" value="&lt;span style=&quot;text-wrap: nowrap;&quot;&gt;Проверка существования&lt;/span&gt;&lt;div&gt;&lt;span style=&quot;background-color: initial; text-wrap: nowrap;&quot;&gt;изменений,&amp;nbsp;&lt;/span&gt;&lt;span style=&quot;background-color: initial; text-wrap: nowrap;&quot;&gt;не&amp;nbsp;&lt;/span&gt;&lt;div&gt;&lt;span style=&quot;text-wrap: nowrap;&quot;&gt;синхронизированных с&lt;/span&gt;&lt;br style=&quot;text-wrap: nowrap;&quot;&gt;&lt;span style=&quot;text-wrap: nowrap;&quot;&gt;удаленным репозиторием&lt;/span&gt;&lt;/div&gt;&lt;/div&gt;" style="points=[[0.25,0,0],[0.5,0,0],[0.75,0,0],[1,0.25,0],[1,0.5,0],[1,0.75,0],[0.75,1,0],[0.5,1,0],[0.25,1,0],[0,0.75,0],[0,0.5,0],[0,0.25,0]];shape=mxgraph.bpmn.task;whiteSpace=wrap;rectStyle=rounded;size=10;html=1;container=1;expand=0;collapsible=0;taskMarker=abstract;" vertex="1" parent="Es5Wt9Gnt3ImgfAcn_2i-17">
          <mxGeometry x="297.5" y="90" width="175" height="80" as="geometry" />
        </mxCell>
        <mxCell id="Es5Wt9Gnt3ImgfAcn_2i-36" style="edgeStyle=orthogonalEdgeStyle;rounded=0;orthogonalLoop=1;jettySize=auto;html=1;entryX=0;entryY=0.5;entryDx=0;entryDy=0;entryPerimeter=0;" edge="1" parent="Es5Wt9Gnt3ImgfAcn_2i-17" source="Es5Wt9Gnt3ImgfAcn_2i-34" target="Es5Wt9Gnt3ImgfAcn_2i-22">
          <mxGeometry relative="1" as="geometry" />
        </mxCell>
        <mxCell id="Es5Wt9Gnt3ImgfAcn_2i-37" style="edgeStyle=orthogonalEdgeStyle;rounded=0;orthogonalLoop=1;jettySize=auto;html=1;entryX=0.5;entryY=1;entryDx=0;entryDy=0;entryPerimeter=0;" edge="1" parent="Es5Wt9Gnt3ImgfAcn_2i-17" source="Es5Wt9Gnt3ImgfAcn_2i-22" target="Es5Wt9Gnt3ImgfAcn_2i-35">
          <mxGeometry relative="1" as="geometry" />
        </mxCell>
        <mxCell id="Es5Wt9Gnt3ImgfAcn_2i-38" style="edgeStyle=orthogonalEdgeStyle;rounded=0;orthogonalLoop=1;jettySize=auto;html=1;entryX=0;entryY=0.5;entryDx=0;entryDy=0;entryPerimeter=0;" edge="1" parent="Es5Wt9Gnt3ImgfAcn_2i-17" source="Es5Wt9Gnt3ImgfAcn_2i-35" target="Es5Wt9Gnt3ImgfAcn_2i-27">
          <mxGeometry relative="1" as="geometry">
            <Array as="points">
              <mxPoint x="490" y="130" />
              <mxPoint x="490" y="180" />
            </Array>
          </mxGeometry>
        </mxCell>
        <mxCell id="Es5Wt9Gnt3ImgfAcn_2i-39" value="Изменения&lt;div&gt;существуют&lt;/div&gt;" style="text;html=1;align=center;verticalAlign=middle;resizable=0;points=[];autosize=1;strokeColor=none;fillColor=none;" vertex="1" parent="Es5Wt9Gnt3ImgfAcn_2i-17">
          <mxGeometry x="515" y="215" width="90" height="40" as="geometry" />
        </mxCell>
        <mxCell id="Es5Wt9Gnt3ImgfAcn_2i-41" value="Изменений нет" style="text;html=1;align=center;verticalAlign=middle;resizable=0;points=[];autosize=1;strokeColor=none;fillColor=none;" vertex="1" parent="Es5Wt9Gnt3ImgfAcn_2i-17">
          <mxGeometry x="520" y="90" width="110" height="30" as="geometry" />
        </mxCell>
        <mxCell id="Es5Wt9Gnt3ImgfAcn_2i-42" style="edgeStyle=orthogonalEdgeStyle;rounded=0;orthogonalLoop=1;jettySize=auto;html=1;entryX=0;entryY=0.5;entryDx=0;entryDy=0;entryPerimeter=0;" edge="1" parent="Es5Wt9Gnt3ImgfAcn_2i-17" source="Es5Wt9Gnt3ImgfAcn_2i-33" target="Es5Wt9Gnt3ImgfAcn_2i-34">
          <mxGeometry relative="1" as="geometry" />
        </mxCell>
        <mxCell id="Es5Wt9Gnt3ImgfAcn_2i-43" value="&lt;span style=&quot;text-wrap: nowrap;&quot;&gt;Предложить&amp;nbsp;&lt;/span&gt;&lt;div&gt;&lt;span style=&quot;text-wrap: nowrap;&quot;&gt;синхронизацию&lt;/span&gt;&lt;/div&gt;&lt;div&gt;&lt;span style=&quot;text-wrap: nowrap;&quot;&gt;&amp;nbsp;изменений с&lt;/span&gt;&lt;/div&gt;&lt;div&gt;&lt;span style=&quot;text-wrap: nowrap;&quot;&gt;&amp;nbsp;удаленным&lt;/span&gt;&lt;/div&gt;&lt;div&gt;&lt;span style=&quot;text-wrap: nowrap;&quot;&gt;&amp;nbsp;репозиторием&lt;/span&gt;&lt;/div&gt;" style="points=[[0.25,0,0],[0.5,0,0],[0.75,0,0],[1,0.25,0],[1,0.5,0],[1,0.75,0],[0.75,1,0],[0.5,1,0],[0.25,1,0],[0,0.75,0],[0,0.5,0],[0,0.25,0]];shape=mxgraph.bpmn.task;whiteSpace=wrap;rectStyle=rounded;size=10;html=1;container=1;expand=0;collapsible=0;taskMarker=abstract;" vertex="1" parent="Es5Wt9Gnt3ImgfAcn_2i-17">
          <mxGeometry x="605" y="170" width="120" height="90" as="geometry" />
        </mxCell>
        <mxCell id="Es5Wt9Gnt3ImgfAcn_2i-44" value="" style="points=[[0.25,0.25,0],[0.5,0,0],[0.75,0.25,0],[1,0.5,0],[0.75,0.75,0],[0.5,1,0],[0.25,0.75,0],[0,0.5,0]];shape=mxgraph.bpmn.gateway2;html=1;verticalLabelPosition=bottom;labelBackgroundColor=#ffffff;verticalAlign=top;align=center;perimeter=rhombusPerimeter;outlineConnect=0;outline=none;symbol=none;gwType=exclusive;" vertex="1" parent="Es5Wt9Gnt3ImgfAcn_2i-17">
          <mxGeometry x="750" y="190" width="50" height="50" as="geometry" />
        </mxCell>
        <mxCell id="Es5Wt9Gnt3ImgfAcn_2i-45" style="edgeStyle=orthogonalEdgeStyle;rounded=0;orthogonalLoop=1;jettySize=auto;html=1;entryX=0;entryY=0.5;entryDx=0;entryDy=0;entryPerimeter=0;" edge="1" parent="Es5Wt9Gnt3ImgfAcn_2i-17" source="Es5Wt9Gnt3ImgfAcn_2i-43" target="Es5Wt9Gnt3ImgfAcn_2i-44">
          <mxGeometry relative="1" as="geometry" />
        </mxCell>
        <mxCell id="Es5Wt9Gnt3ImgfAcn_2i-46" value="&lt;span style=&quot;text-wrap: nowrap;&quot;&gt;Отправить запрос&lt;/span&gt;&lt;div&gt;&lt;span style=&quot;text-wrap: nowrap;&quot;&gt;на синхронихацию&lt;/span&gt;&lt;/div&gt;&lt;div&gt;&lt;span style=&quot;text-wrap: nowrap;&quot;&gt;удаленному&lt;/span&gt;&lt;/div&gt;&lt;div&gt;&lt;span style=&quot;text-wrap: nowrap;&quot;&gt;репозиторию&lt;/span&gt;&lt;/div&gt;" style="points=[[0.25,0,0],[0.5,0,0],[0.75,0,0],[1,0.25,0],[1,0.5,0],[1,0.75,0],[0.75,1,0],[0.5,1,0],[0.25,1,0],[0,0.75,0],[0,0.5,0],[0,0.25,0]];shape=mxgraph.bpmn.task;whiteSpace=wrap;rectStyle=rounded;size=10;html=1;container=1;expand=0;collapsible=0;taskMarker=abstract;" vertex="1" parent="Es5Wt9Gnt3ImgfAcn_2i-17">
          <mxGeometry x="830" y="80" width="120" height="90" as="geometry" />
        </mxCell>
        <mxCell id="Es5Wt9Gnt3ImgfAcn_2i-47" style="edgeStyle=orthogonalEdgeStyle;rounded=0;orthogonalLoop=1;jettySize=auto;html=1;entryX=0;entryY=0.5;entryDx=0;entryDy=0;entryPerimeter=0;" edge="1" parent="Es5Wt9Gnt3ImgfAcn_2i-17" source="Es5Wt9Gnt3ImgfAcn_2i-44" target="Es5Wt9Gnt3ImgfAcn_2i-46">
          <mxGeometry relative="1" as="geometry">
            <Array as="points">
              <mxPoint x="775" y="125" />
            </Array>
          </mxGeometry>
        </mxCell>
        <mxCell id="Es5Wt9Gnt3ImgfAcn_2i-48" value="Отказ" style="text;html=1;align=center;verticalAlign=middle;resizable=0;points=[];autosize=1;strokeColor=none;fillColor=none;" vertex="1" parent="Es5Wt9Gnt3ImgfAcn_2i-17">
          <mxGeometry x="770" y="160" width="60" height="30" as="geometry" />
        </mxCell>
        <mxCell id="Es5Wt9Gnt3ImgfAcn_2i-49" value="" style="endArrow=none;dashed=1;html=1;rounded=0;entryX=0.5;entryY=0;entryDx=0;entryDy=0;entryPerimeter=0;startArrow=classic;startFill=1;" edge="1" parent="Es5Wt9Gnt3ImgfAcn_2i-17" target="Es5Wt9Gnt3ImgfAcn_2i-46">
          <mxGeometry width="50" height="50" relative="1" as="geometry">
            <mxPoint x="890" as="sourcePoint" />
            <mxPoint x="690" y="210" as="targetPoint" />
          </mxGeometry>
        </mxCell>
        <mxCell id="Es5Wt9Gnt3ImgfAcn_2i-51" style="edgeStyle=orthogonalEdgeStyle;rounded=0;orthogonalLoop=1;jettySize=auto;html=1;entryX=0;entryY=0.5;entryDx=0;entryDy=0;entryPerimeter=0;" edge="1" parent="Es5Wt9Gnt3ImgfAcn_2i-17" source="Es5Wt9Gnt3ImgfAcn_2i-46">
          <mxGeometry relative="1" as="geometry">
            <mxPoint x="980" y="125" as="targetPoint" />
          </mxGeometry>
        </mxCell>
        <mxCell id="Es5Wt9Gnt3ImgfAcn_2i-53" value="" style="points=[[0.145,0.145,0],[0.5,0,0],[0.855,0.145,0],[1,0.5,0],[0.855,0.855,0],[0.5,1,0],[0.145,0.855,0],[0,0.5,0]];shape=mxgraph.bpmn.event;html=1;verticalLabelPosition=bottom;labelBackgroundColor=#ffffff;verticalAlign=top;align=center;perimeter=ellipsePerimeter;outlineConnect=0;aspect=fixed;outline=boundInt;symbol=cancel;" vertex="1" parent="Es5Wt9Gnt3ImgfAcn_2i-17">
          <mxGeometry x="830" y="230" width="50" height="50" as="geometry" />
        </mxCell>
        <mxCell id="Es5Wt9Gnt3ImgfAcn_2i-54" style="edgeStyle=orthogonalEdgeStyle;rounded=0;orthogonalLoop=1;jettySize=auto;html=1;entryX=0;entryY=0.5;entryDx=0;entryDy=0;entryPerimeter=0;" edge="1" parent="Es5Wt9Gnt3ImgfAcn_2i-17" source="Es5Wt9Gnt3ImgfAcn_2i-44" target="Es5Wt9Gnt3ImgfAcn_2i-53">
          <mxGeometry relative="1" as="geometry">
            <Array as="points">
              <mxPoint x="775" y="255" />
            </Array>
          </mxGeometry>
        </mxCell>
        <mxCell id="Es5Wt9Gnt3ImgfAcn_2i-55" value="Согласие" style="text;html=1;align=center;verticalAlign=middle;resizable=0;points=[];autosize=1;strokeColor=none;fillColor=none;" vertex="1" parent="Es5Wt9Gnt3ImgfAcn_2i-17">
          <mxGeometry x="750" y="260" width="80" height="30" as="geometry" />
        </mxCell>
        <mxCell id="Es5Wt9Gnt3ImgfAcn_2i-56" value="" style="points=[[0.25,0.25,0],[0.5,0,0],[0.75,0.25,0],[1,0.5,0],[0.75,0.75,0],[0.5,1,0],[0.25,0.75,0],[0,0.5,0]];shape=mxgraph.bpmn.gateway2;html=1;verticalLabelPosition=bottom;labelBackgroundColor=#ffffff;verticalAlign=top;align=center;perimeter=rhombusPerimeter;outlineConnect=0;outline=boundInt;symbol=multiple;" vertex="1" parent="Es5Wt9Gnt3ImgfAcn_2i-17">
          <mxGeometry x="980" y="100" width="50" height="50" as="geometry" />
        </mxCell>
        <mxCell id="Es5Wt9Gnt3ImgfAcn_2i-59" value="Отказ" style="text;html=1;align=center;verticalAlign=middle;resizable=0;points=[];autosize=1;strokeColor=none;fillColor=none;" vertex="1" parent="Es5Wt9Gnt3ImgfAcn_2i-17">
          <mxGeometry x="960" y="170" width="60" height="30" as="geometry" />
        </mxCell>
        <mxCell id="Es5Wt9Gnt3ImgfAcn_2i-60" value="" style="points=[[0.145,0.145,0],[0.5,0,0],[0.855,0.145,0],[1,0.5,0],[0.855,0.855,0],[0.5,1,0],[0.145,0.855,0],[0,0.5,0]];shape=mxgraph.bpmn.event;html=1;verticalLabelPosition=bottom;labelBackgroundColor=#ffffff;verticalAlign=top;align=center;perimeter=ellipsePerimeter;outlineConnect=0;aspect=fixed;outline=standard;symbol=message;" vertex="1" parent="Es5Wt9Gnt3ImgfAcn_2i-17">
          <mxGeometry x="1030" y="155" width="50" height="50" as="geometry" />
        </mxCell>
        <mxCell id="Es5Wt9Gnt3ImgfAcn_2i-61" value="" style="edgeStyle=orthogonalEdgeStyle;rounded=0;orthogonalLoop=1;jettySize=auto;html=1;entryX=0;entryY=0.5;entryDx=0;entryDy=0;entryPerimeter=0;" edge="1" parent="Es5Wt9Gnt3ImgfAcn_2i-17" source="Es5Wt9Gnt3ImgfAcn_2i-56" target="Es5Wt9Gnt3ImgfAcn_2i-60">
          <mxGeometry relative="1" as="geometry">
            <mxPoint x="1270" y="260" as="targetPoint" />
            <mxPoint x="1195" y="230" as="sourcePoint" />
            <Array as="points" />
          </mxGeometry>
        </mxCell>
        <mxCell id="Es5Wt9Gnt3ImgfAcn_2i-62" value="Сообщение причины отказа" style="text;html=1;align=center;verticalAlign=middle;resizable=0;points=[];autosize=1;strokeColor=none;fillColor=none;" vertex="1" parent="Es5Wt9Gnt3ImgfAcn_2i-17">
          <mxGeometry x="965" y="210" width="180" height="30" as="geometry" />
        </mxCell>
        <mxCell id="Es5Wt9Gnt3ImgfAcn_2i-64" value="&lt;span style=&quot;text-wrap: nowrap;&quot;&gt;Перезаписать&lt;/span&gt;&lt;div&gt;&lt;span style=&quot;text-wrap: nowrap;&quot;&gt;локальный&lt;/span&gt;&lt;/div&gt;&lt;div&gt;&lt;span style=&quot;text-wrap: nowrap;&quot;&gt;репозиторий&lt;/span&gt;&lt;/div&gt;" style="points=[[0.25,0,0],[0.5,0,0],[0.75,0,0],[1,0.25,0],[1,0.5,0],[1,0.75,0],[0.75,1,0],[0.5,1,0],[0.25,1,0],[0,0.75,0],[0,0.5,0],[0,0.25,0]];shape=mxgraph.bpmn.task;whiteSpace=wrap;rectStyle=rounded;size=10;html=1;container=1;expand=0;collapsible=0;taskMarker=abstract;" vertex="1" parent="Es5Wt9Gnt3ImgfAcn_2i-17">
          <mxGeometry x="1160" y="20" width="120" height="60" as="geometry" />
        </mxCell>
        <mxCell id="Es5Wt9Gnt3ImgfAcn_2i-65" value="&lt;span style=&quot;text-wrap: nowrap;&quot;&gt;Указать причину&lt;/span&gt;&lt;div&gt;&lt;span style=&quot;text-wrap: nowrap;&quot;&gt;отказа студенту&lt;/span&gt;&lt;/div&gt;" style="points=[[0.25,0,0],[0.5,0,0],[0.75,0,0],[1,0.25,0],[1,0.5,0],[1,0.75,0],[0.75,1,0],[0.5,1,0],[0.25,1,0],[0,0.75,0],[0,0.5,0],[0,0.25,0]];shape=mxgraph.bpmn.task;whiteSpace=wrap;rectStyle=rounded;size=10;html=1;container=1;expand=0;collapsible=0;taskMarker=abstract;" vertex="1" parent="Es5Wt9Gnt3ImgfAcn_2i-17">
          <mxGeometry x="1100" y="152.5" width="120" height="55" as="geometry" />
        </mxCell>
        <mxCell id="Es5Wt9Gnt3ImgfAcn_2i-66" style="edgeStyle=orthogonalEdgeStyle;rounded=0;orthogonalLoop=1;jettySize=auto;html=1;entryX=0;entryY=0.5;entryDx=0;entryDy=0;entryPerimeter=0;" edge="1" parent="Es5Wt9Gnt3ImgfAcn_2i-17" source="Es5Wt9Gnt3ImgfAcn_2i-60" target="Es5Wt9Gnt3ImgfAcn_2i-65">
          <mxGeometry relative="1" as="geometry" />
        </mxCell>
        <mxCell id="Es5Wt9Gnt3ImgfAcn_2i-67" value="" style="points=[[0.145,0.145,0],[0.5,0,0],[0.855,0.145,0],[1,0.5,0],[0.855,0.855,0],[0.5,1,0],[0.145,0.855,0],[0,0.5,0]];shape=mxgraph.bpmn.event;html=1;verticalLabelPosition=bottom;labelBackgroundColor=#ffffff;verticalAlign=top;align=center;perimeter=ellipsePerimeter;outlineConnect=0;aspect=fixed;outline=end;symbol=cancel;" vertex="1" parent="Es5Wt9Gnt3ImgfAcn_2i-17">
          <mxGeometry x="1240" y="155" width="50" height="50" as="geometry" />
        </mxCell>
        <mxCell id="Es5Wt9Gnt3ImgfAcn_2i-68" style="edgeStyle=orthogonalEdgeStyle;rounded=0;orthogonalLoop=1;jettySize=auto;html=1;entryX=0;entryY=0.5;entryDx=0;entryDy=0;entryPerimeter=0;" edge="1" parent="Es5Wt9Gnt3ImgfAcn_2i-17" source="Es5Wt9Gnt3ImgfAcn_2i-65" target="Es5Wt9Gnt3ImgfAcn_2i-67">
          <mxGeometry relative="1" as="geometry" />
        </mxCell>
        <mxCell id="Es5Wt9Gnt3ImgfAcn_2i-69" value="" style="points=[[0.145,0.145,0],[0.5,0,0],[0.855,0.145,0],[1,0.5,0],[0.855,0.855,0],[0.5,1,0],[0.145,0.855,0],[0,0.5,0]];shape=mxgraph.bpmn.event;html=1;verticalLabelPosition=bottom;labelBackgroundColor=#ffffff;verticalAlign=top;align=center;perimeter=ellipsePerimeter;outlineConnect=0;aspect=fixed;outline=standard;symbol=message;" vertex="1" parent="Es5Wt9Gnt3ImgfAcn_2i-17">
          <mxGeometry x="1080" y="25" width="50" height="50" as="geometry" />
        </mxCell>
        <mxCell id="Es5Wt9Gnt3ImgfAcn_2i-70" value="Данные с&lt;br&gt;удаленного&lt;br&gt;репозитория" style="text;html=1;align=center;verticalAlign=middle;resizable=0;points=[];autosize=1;strokeColor=none;fillColor=none;" vertex="1" parent="Es5Wt9Gnt3ImgfAcn_2i-17">
          <mxGeometry x="1060" y="75" width="90" height="60" as="geometry" />
        </mxCell>
        <mxCell id="Es5Wt9Gnt3ImgfAcn_2i-71" style="edgeStyle=orthogonalEdgeStyle;rounded=0;orthogonalLoop=1;jettySize=auto;html=1;entryX=0;entryY=0.5;entryDx=0;entryDy=0;entryPerimeter=0;" edge="1" parent="Es5Wt9Gnt3ImgfAcn_2i-17" source="Es5Wt9Gnt3ImgfAcn_2i-56" target="Es5Wt9Gnt3ImgfAcn_2i-69">
          <mxGeometry relative="1" as="geometry">
            <Array as="points">
              <mxPoint x="1005" y="50" />
            </Array>
          </mxGeometry>
        </mxCell>
        <mxCell id="Es5Wt9Gnt3ImgfAcn_2i-72" style="edgeStyle=orthogonalEdgeStyle;rounded=0;orthogonalLoop=1;jettySize=auto;html=1;entryX=0;entryY=0.5;entryDx=0;entryDy=0;entryPerimeter=0;" edge="1" parent="Es5Wt9Gnt3ImgfAcn_2i-17" source="Es5Wt9Gnt3ImgfAcn_2i-69" target="Es5Wt9Gnt3ImgfAcn_2i-64">
          <mxGeometry relative="1" as="geometry" />
        </mxCell>
        <mxCell id="Es5Wt9Gnt3ImgfAcn_2i-74" value="" style="points=[[0.145,0.145,0],[0.5,0,0],[0.855,0.145,0],[1,0.5,0],[0.855,0.855,0],[0.5,1,0],[0.145,0.855,0],[0,0.5,0]];shape=mxgraph.bpmn.event;html=1;verticalLabelPosition=bottom;labelBackgroundColor=#ffffff;verticalAlign=top;align=center;perimeter=ellipsePerimeter;outlineConnect=0;aspect=fixed;outline=end;symbol=terminate2;" vertex="1" parent="Es5Wt9Gnt3ImgfAcn_2i-17">
          <mxGeometry x="1310" y="25" width="50" height="50" as="geometry" />
        </mxCell>
        <mxCell id="Es5Wt9Gnt3ImgfAcn_2i-75" style="edgeStyle=orthogonalEdgeStyle;rounded=0;orthogonalLoop=1;jettySize=auto;html=1;entryX=0;entryY=0.5;entryDx=0;entryDy=0;entryPerimeter=0;" edge="1" parent="Es5Wt9Gnt3ImgfAcn_2i-17" source="Es5Wt9Gnt3ImgfAcn_2i-64" target="Es5Wt9Gnt3ImgfAcn_2i-74">
          <mxGeometry relative="1" as="geometry" />
        </mxCell>
        <mxCell id="Es5Wt9Gnt3ImgfAcn_2i-77" value="Подтверждение&lt;div&gt;синхронизации&lt;/div&gt;" style="text;html=1;align=center;verticalAlign=middle;resizable=0;points=[];autosize=1;strokeColor=none;fillColor=none;" vertex="1" parent="Es5Wt9Gnt3ImgfAcn_2i-17">
          <mxGeometry x="935" y="10" width="110" height="40" as="geometry" />
        </mxCell>
        <mxCell id="Es5Wt9Gnt3ImgfAcn_2i-63" value="" style="endArrow=classic;dashed=1;html=1;rounded=0;entryX=0.5;entryY=0;entryDx=0;entryDy=0;entryPerimeter=0;endFill=1;" edge="1" parent="1" target="Es5Wt9Gnt3ImgfAcn_2i-60">
          <mxGeometry width="50" height="50" relative="1" as="geometry">
            <mxPoint x="1245" y="80" as="sourcePoint" />
            <mxPoint x="1000" y="290" as="targetPoint" />
          </mxGeometry>
        </mxCell>
        <mxCell id="Es5Wt9Gnt3ImgfAcn_2i-76" value="" style="endArrow=classic;dashed=1;html=1;rounded=0;entryX=0.5;entryY=0;entryDx=0;entryDy=0;entryPerimeter=0;endFill=1;" edge="1" parent="1" target="Es5Wt9Gnt3ImgfAcn_2i-69">
          <mxGeometry width="50" height="50" relative="1" as="geometry">
            <mxPoint x="1295" y="80" as="sourcePoint" />
            <mxPoint x="1255" y="245" as="targetPoint" />
          </mxGeometry>
        </mxCell>
      </root>
    </mxGraphModel>
  </diagram>
</mxfile>
